<?xml version="1.0" encoding="utf-8"?>
<!-- Generator: Adobe Illustrator 20.1.0, SVG Export Plug-In . SVG Version: 6.00 Build 0)  -->
<svg version="1.1" id="Layer_1" xmlns="http://www.w3.org/2000/svg" xmlns:xlink="http://www.w3.org/1999/xlink" x="0px" y="0px"
	 viewBox="0 0 818 210" style="enable-background:new 0 0 818 210;" xml:space="preserve">
<style type="text/css">
	.st0{fill:#333C46;}
	.st1{fill:#5980C0;}
</style>
<g>
	<g>
		<g>
			<path class="st0" d="M226.5,53.1h39l1.2,20.5H259l-2.7-14.2l-9-0.9v38.3l10.1,0.8v4.9h-31v-4.9l7.3-0.8V59.4l-7.2-1.1V53.1z"/>
			<path class="st0" d="M272.3,96.8L286.8,53h14.5l14.5,43.9l3.5,0.7v4.9h-23v-4.9l4.4-0.7l-1.9-7h-14.4l-1.8,7.2l5,0.6v4.9h-19
				l-0.1-4.9L272.3,96.8z M297.3,84.1l-5.1-19.1l-0.7-4.1l-0.7,4.1l-4.9,19.1H297.3z"/>
			<path class="st0" d="M330.1,96.6c-4.1-4.4-6.1-10.4-6.1-18.1c0-5.4,1.1-10.1,3.2-14c2.2-3.9,5.2-6.9,9-8.9
				c3.8-2,8.2-3.1,13.1-3.1c3.1,0,6.9,0.3,11.5,1c2.4,0.3,4.1,0.5,4.9,0.5l-0.9,16.3h-8.5l-2.6-11.1c-0.9-0.9-2.5-1.4-4.9-1.4
				c-3,0-5.3,1.6-7,4.9c-1.7,3.3-2.5,8.2-2.5,14.7c0,6.3,0.8,11.3,2.5,15c1.6,3.7,4,5.5,7.2,5.5c1.6,0,2.8-0.2,3.5-0.5
				c0.8-0.3,1.5-0.8,2.1-1.4l3.2-7.4l7.8,0.7l-1.1,11.5c-1.2,0.1-2.9,0.5-5.1,1c-1.9,0.5-3.7,0.9-5.3,1.1c-1.6,0.3-3.6,0.4-5.9,0.4
				C340.1,103.2,334.1,101,330.1,96.6z"/>
			<path class="st0" d="M391.3,96.8V58.7l-6.9,0.3l-3.1,15.3H374l1.1-21.2h45.7l0.9,21.2h-6.9L411.5,59l-6.5-0.3v38.1l9.3,0.8v4.9
				h-31.5v-4.9L391.3,96.8z"/>
			<path class="st0" d="M435.3,59.4l-4.8-1v-5.2h12c0.5,0,1.7,0,3.5-0.1c2.9-0.2,5.4-0.2,7.6-0.2c5,0,9,0.6,11.9,1.7
				c2.9,1.2,4.9,2.8,6.1,5c1.2,2.2,1.8,5,1.8,8.4c0,5.8-1.7,10.3-5.2,13.5c-3.5,3.2-8.6,4.8-15.4,4.8c-1.4,0-2.7-0.1-3.8-0.2v10.9
				l8.7,0.7v4.9h-27.4v-4.9l4.9-0.7V59.4z M452.4,81.2c2.3,0,4-1,5.3-3c1.3-2,1.9-5.3,1.9-10c0-7-2.4-10.6-7.2-10.6
				c-1.3,0-2.2,0.1-2.6,0.2c-0.4,0.1-0.7,0.2-0.8,0.2v22.9C449.6,81.1,450.8,81.2,452.4,81.2z"/>
			<path class="st0" d="M487.2,96.5c-3.6-4.5-5.5-10.7-5.5-18.7c0-5.1,0.9-9.5,2.8-13.4c1.9-3.8,4.6-6.8,8.1-8.8
				c3.5-2.1,7.7-3.1,12.5-3.1c8.1,0,13.9,2.1,17.6,6.3c3.7,4.2,5.5,10.2,5.5,18.1c0,5.2-1,9.8-2.9,13.8c-1.9,4-4.7,7.1-8.2,9.3
				s-7.8,3.3-12.5,3.3C496.7,103.2,490.9,101,487.2,96.5z M496.8,77.7c0,7.3,0.7,12.6,2.1,15.8c1.4,3.2,3.4,4.8,6.1,4.8
				c2.7,0,4.7-1.8,6.1-5.5c1.4-3.7,2.1-9,2.1-15.9c0-7.2-0.7-12.3-2.1-15.2c-1.4-2.9-3.4-4.4-6.1-4.4
				C499.6,57.3,496.8,64.1,496.8,77.7z"/>
			<path class="st0" d="M589.3,107.9c-0.5,5-0.8,7.9-1,8.6h-7c0-1.4-0.4-3.8-0.9-7.3c-0.6-3.5-1.1-5.7-1.6-6.7h-43.2v-4.9l5.1-0.8
				V59.3l-4.9-0.9v-5.2H560v5.2l-5.6,1v38H569V59.3l-4.8-0.9v-5.2h23.4v5.2l-4.9,0.9v37.5h7.4C590,99.1,589.8,102.8,589.3,107.9z"/>
			<path class="st0" d="M603.7,96.8V59.4l-5.1-1v-5.2h38.2l0.9,12.4h-6.1l-2.5-6.8L617.4,58v16.5l6.8-0.2l1.3-5.4h5.1v17.3h-5.1
				l-1.2-5.8l-6.8-0.1v17.1l12.7-1l4.3-8.7l6.6,1.8l-1.4,13h-40.9v-4.9L603.7,96.8z"/>
			<path class="st0" d="M654,96.8V59.3l-4.6-0.9v-5.2h23.6v5.2l-5.4,0.9v14.9h15.9V59.4l-4.9-1v-5.2h23.4v5.2l-4.8,0.9v37.5l4.8,0.7
				v4.9h-23.4v-4.9l4.9-0.8V80.6h-15.9v16.2l5.4,0.7v4.9h-23.7v-4.9L654,96.8z"/>
			<path class="st0" d="M727.9,96.8V58.7L721,59l-3.1,15.3h-7.3l1.1-21.2h45.7l0.9,21.2h-6.9L748.1,59l-6.5-0.3v38.1l9.3,0.8v4.9
				h-31.5v-4.9L727.9,96.8z"/>
			<path class="st0" d="M771.9,59.4l-4.8-1v-5.2h12c0.5,0,1.7,0,3.5-0.1c2.9-0.2,5.4-0.2,7.6-0.2c5,0,9,0.6,11.9,1.7
				c2.9,1.2,4.9,2.8,6.1,5c1.2,2.2,1.8,5,1.8,8.4c0,5.8-1.7,10.3-5.2,13.5c-3.5,3.2-8.6,4.8-15.4,4.8c-1.4,0-2.7-0.1-3.8-0.2v10.9
				l8.7,0.7v4.9H767v-4.9l4.9-0.7V59.4z M789,81.2c2.3,0,4-1,5.3-3c1.3-2,1.9-5.3,1.9-10c0-7-2.4-10.6-7.2-10.6
				c-1.3,0-2.2,0.1-2.6,0.2c-0.4,0.1-0.7,0.2-0.8,0.2v22.9C786.2,81.1,787.4,81.2,789,81.2z"/>
			<path class="st0" d="M243.4,142.1l-5.8,10l6.4,11.7h-4.7l-5.2-9.8h-2.7v9.8h-4.2v-21.7h4.2v8.8h2.7l5-8.8H243.4z"/>
			<path class="st0" d="M276.2,142.1v21.7h-4.2v-18.4h-5.6l-1,8.3c-0.3,2.6-0.7,4.5-1.1,5.9c-0.4,1.4-1.1,2.4-1.9,3.1
				s-1.9,1.3-3.4,1.6l-1-3c0.8-0.3,1.4-0.7,1.8-1.2c0.4-0.5,0.7-1.2,0.9-2.1s0.4-2.4,0.7-4.4l1.4-11.5H276.2z"/>
			<path class="st0" d="M309.9,163.8h-4.2v-9.2c0-2.7,0.2-5.4,0.6-8.2l-7.5,17.4h-5.2v-21.7h4.2v9.3c0,1.7-0.1,3.2-0.2,4.3
				c-0.1,1.2-0.3,2.4-0.4,3.8l7.6-17.4h5.1V163.8z"/>
			<path class="st0" d="M339.4,163.8v-9.7h-7.9v9.7h-4.2v-21.7h4.2v8.7h7.9v-8.7h4.2v21.7H339.4z"/>
			<path class="st0" d="M377.4,163.8h-4.2v-9.2c0-2.7,0.2-5.4,0.6-8.2l-7.5,17.4h-5.2v-21.7h4.2v9.3c0,1.7-0.1,3.2-0.2,4.3
				c-0.1,1.2-0.3,2.4-0.4,3.8l7.6-17.4h5.1V163.8z"/>
			<path class="st0" d="M411,142.1l-5.8,10l6.4,11.7h-4.7l-5.2-9.8H399v9.8h-4.2v-21.7h4.2v8.8h2.7l5-8.8H411z"/>
			<path class="st0" d="M440.1,163.8l-1.4-5h-7.3l-1.4,5h-4.4l6.9-21.7h5.2l6.8,21.7H440.1z M432.3,155.6h5.6l-2.8-10.4L432.3,155.6
				z"/>
		</g>
	</g>
	<g>
		<path class="st1" d="M99.1,187.6c-6,0-12.1-0.6-18-1.8c-5.7-1.2-11.3-2.9-16.7-5.2c-5.3-2.2-10.4-5-15.1-8.2
			c-4.7-3.2-9.2-6.8-13.2-10.8c-4-4-7.7-8.4-10.9-13.1c-3.2-4.7-6-9.8-8.2-15c-2.3-5.3-4-10.9-5.2-16.6C10.6,111,10,105,10,99
			c0-4.2,0.3-8.5,0.9-12.7c0.6-4.1,1.5-8.2,2.6-12.1c1.1-3.9,2.6-7.7,4.2-11.4c1.7-3.7,3.6-7.2,5.7-10.6c2.1-3.4,4.5-6.6,7.1-9.7
			c2.6-3.1,5.4-6,8.3-8.7c2.9-2.7,6.1-5.2,9.4-7.5c3.3-2.3,6.8-4.4,10.4-6.2c1.5-0.8,3.1-1.5,4.6-2.2c1.6-0.7,3.2-1.3,4.8-1.9
			c1.6-0.6,3.3-1.1,4.9-1.7c1.7-0.5,3.3-1,5-1.4c1.7-0.4,3.4-0.8,5.1-1.1c1.7-0.3,3.5-0.6,5.2-0.8c1.8-0.2,3.5-0.4,5.3-0.5
			c7.7-0.5,15.7,0.1,23.4,1.6c5.7,1.2,11.4,2.9,16.7,5.2c2,0.8,2.9,3.1,2.1,5.1c-0.8,2-3.1,2.9-5.1,2.1c-4.9-2.1-10-3.6-15.3-4.7
			c-7-1.4-14.3-1.9-21.3-1.5c-1.6,0.1-3.3,0.2-4.9,0.4c-1.6,0.2-3.2,0.4-4.8,0.7c-1.6,0.3-3.1,0.6-4.7,1c-1.5,0.4-3.1,0.8-4.6,1.2
			c-1.5,0.5-3,1-4.5,1.5c-1.5,0.5-2.9,1.1-4.3,1.7c-1.4,0.6-2.8,1.3-4.2,2c-3.3,1.7-6.5,3.6-9.5,5.6c-3,2.1-5.9,4.4-8.6,6.8
			c-2.7,2.4-5.2,5.1-7.6,7.9c-2.3,2.8-4.5,5.8-6.5,8.9c-2,3.1-3.7,6.4-5.2,9.7c-1.5,3.4-2.8,6.9-3.9,10.4c-1.1,3.6-1.9,7.3-2.4,11
			c-0.5,3.8-0.8,7.7-0.8,11.6c0,5.5,0.6,11,1.7,16.3c1.1,5.2,2.7,10.3,4.7,15.1c2,4.8,4.6,9.4,7.5,13.7c2.9,4.3,6.2,8.3,9.9,11.9
			c3.7,3.7,7.7,7,12,9.9c4.3,2.9,9,5.4,13.8,7.4c4.9,2.1,10,3.6,15.3,4.7c10.7,2.2,22.1,2.2,32.8,0c5.2-1.1,10.4-2.6,15.3-4.7
			c4.8-2,9.5-4.5,13.8-7.4c4.3-2.9,8.4-6.2,12-9.9c3.7-3.7,7-7.7,9.9-11.9c2.9-4.3,5.5-8.9,7.5-13.7c2.1-4.9,3.7-10,4.7-15.1
			c1.1-5.3,1.7-10.8,1.7-16.3c0-5.5-0.6-10.9-1.7-16.3c-1.1-5.2-2.7-10.3-4.7-15.1c-0.8-2,0.1-4.3,2.1-5.1c2-0.9,4.3,0.1,5.1,2.1
			c2.3,5.3,4,10.9,5.2,16.6c1.2,5.8,1.8,11.8,1.8,17.8c0,6-0.6,12-1.8,17.9c-1.2,5.7-2.9,11.3-5.2,16.6c-2.2,5.3-5,10.3-8.2,15
			c-3.2,4.7-6.9,9.1-10.9,13.1c-4,4-8.5,7.6-13.2,10.8c-4.8,3.2-9.9,5.9-15.1,8.2c-5.4,2.3-11,4-16.7,5.2
			C111.2,187,105.2,187.6,99.1,187.6z M170.7,99c0,9.6-1.9,18.9-5.6,27.7c-3.6,8.5-8.8,16.1-15.3,22.6c-6.6,6.5-14.2,11.7-22.8,15.2
			c-8.8,3.7-18.2,5.6-27.9,5.6c-0.7,0-1.3,0-2,0c-0.2,0-0.3,0-0.5,0c-0.3,0-0.5-0.1-0.8-0.1c-8.5-0.4-16.7-2.2-24.6-5.5
			c-8.5-3.6-16.2-8.7-22.8-15.2c-6.6-6.5-11.7-14.1-15.3-22.6c-3.7-8.8-5.6-18.1-5.6-27.7c0-6.8,1-13.5,2.8-19.9
			c1.8-6.2,4.5-12.2,8-17.8c3.4-5.4,7.6-10.4,12.4-14.8c4.8-4.4,10.1-8.1,15.9-11c2.4-1.2,5-2.3,7.5-3.3c2.6-1,5.3-1.8,8-2.4
			c2.7-0.7,5.5-1.2,8.3-1.5c1.7-0.2,3.4-0.3,5.1-0.4c0.4,0,0.7-0.1,1.1-0.1c0.2,0,0.4,0,0.6,0.1c0.6,0,1.3-0.1,1.9-0.1
			c9.7,0,19,1.9,27.9,5.6c8.5,3.6,16.2,8.7,22.8,15.2c6.6,6.5,11.7,14.1,15.3,22.6C168.8,80.1,170.7,89.4,170.7,99z M162.9,99
			c0-8.5-1.7-16.8-5-24.6c-3.2-7.5-7.8-14.3-13.7-20.1c-5.9-5.8-12.7-10.4-20.3-13.6c-7.9-3.3-16.2-5-24.8-5c-1.1,0-2.2,0-3.3,0.1
			c-1.6,0.4-2.8,1.8-2.8,3.4c0,2,1.6,3.5,3.6,3.5h14.8c6.3,0,11.4,5.1,11.4,11.4s-5.1,11.4-11.4,11.4H69.1c-6.1,0-11.1,4.9-11.1,11
			c0,6.1,5,11,11.1,11h67.7c2.2,0,3.9,1.8,3.9,3.9c0,2.2-1.8,3.9-3.9,3.9H69.1c-10.5,0-19-8.5-19-18.9c0-10.4,8.5-18.9,19-18.9h42.4
			c2,0,3.6-1.6,3.6-3.5s-1.6-3.5-3.6-3.5H96.6c-6.3,0-11.4-5.1-11.4-11.4c0-0.7,0.1-1.4,0.2-2c-0.5,0.1-0.9,0.2-1.4,0.3
			c-2.4,0.6-4.8,1.3-7.1,2.2c-2.3,0.8-4.6,1.8-6.7,2.9c-5.1,2.6-9.9,5.9-14.2,9.8c-4.2,3.9-7.9,8.3-11,13.1
			c-3.1,4.9-5.5,10.2-7.1,15.8C36.2,87,35.4,93,35.4,99c0,8.5,1.7,16.8,5,24.6c3.2,7.5,7.8,14.3,13.7,20.1
			c5.9,5.8,12.7,10.4,20.3,13.6c3.6,1.5,7.3,2.6,11.1,3.5c-0.1-0.7-0.2-1.3-0.2-2c0-6.3,5.1-11.4,11.4-11.4h14.9
			c6.1,0,11.1-4.9,11.1-11c0-6.1-5-11-11.1-11H69.1c-2.2,0-3.9-1.8-3.9-3.9c0-2.2,1.8-3.9,3.9-3.9h42.5c10.5,0,19,8.5,19,18.9
			c0,10.4-8.5,18.9-19,18.9H96.6c-2,0-3.6,1.6-3.6,3.5c0,1.7,1.2,3.1,2.7,3.4c9.6,0.5,19.3-1.1,28.2-4.9c7.6-3.2,14.4-7.8,20.3-13.6
			c5.9-5.8,10.5-12.6,13.7-20.1C161.2,115.8,162.9,107.5,162.9,99z M136.7,72.7H69.1c-2.2,0-3.9,1.8-3.9,3.9c0,2.2,1.8,3.9,3.9,3.9
			h67.7c6.1,0,11.1,4.9,11.1,11c0,6.1-5,11-11.1,11H69.1c-10.5,0-19,8.5-19,18.9c0,10.4,8.5,18.9,19,18.9h42.5
			c2.2,0,3.9-1.8,3.9-3.9c0-2.2-1.8-3.9-3.9-3.9H69.1c-6.1,0-11.1-4.9-11.1-11c0-6.1,5-11,11.1-11h67.7c10.5,0,19-8.5,19-18.9
			C155.7,81.1,147.2,72.7,136.7,72.7z"/>
		<path class="st1" d="M174.9,31.5h-7.8v-7.8c0-2.2-1.8-3.9-3.9-3.9s-3.9,1.8-3.9,3.9v7.8h-7.8c-2.2,0-3.9,1.8-3.9,3.9
			s1.8,3.9,3.9,3.9h7.8v7.8c0,2.2,1.8,3.9,3.9,3.9s3.9-1.8,3.9-3.9v-7.8h7.8c2.2,0,3.9-1.8,3.9-3.9S177.1,31.5,174.9,31.5z"/>
	</g>
</g>
</svg>
